<?xml version="1.0" encoding="UTF-8" standalone="no"?>
<!-- Created with Inkscape (http://www.inkscape.org/) -->

<svg
   version="1.1"
   id="svg1"
   width="351.88406"
   height="286.99213"
   viewBox="0 0 351.88406 286.99213"
   xml:space="preserve"
   xmlns="http://www.w3.org/2000/svg"
   xmlns:svg="http://www.w3.org/2000/svg"><defs
     id="defs1" /><g
     id="g1"
     transform="translate(-76.798393,-49.585381)"><path
       style="fill:#6600ff;stroke-width:4.70598"
       d="M 428.68247,87.891288 169.10077,49.58538"
       id="path1" /><path
       style="fill:#6600ff;stroke-width:4.70598"
       d="M 183.97262,272.0543 312.41149,202.80901"
       id="path2" /><rect
       style="fill:#6600ff;stroke-width:3.41042"
       id="rect6"
       width="232.54192"
       height="19.650312"
       x="77.165665"
       y="55.070385"
       ry="9.8251562" /><rect
       style="fill:#6600ff;stroke-width:2.07718"
       id="rect6-3"
       width="94.720779"
       height="18.032248"
       x="-336.60382"
       y="76.325935"
       ry="8.9480181"
       transform="matrix(-0.00188366,-0.99999823,0.99999995,-3.0144789e-4,0,0)" /><rect
       style="fill:#6600ff;stroke-width:2.00453"
       id="rect6-3-4"
       width="88.209442"
       height="18.032244"
       x="-330.04083"
       y="284.88113"
       ry="8.9480181"
       transform="matrix(-0.00202272,-0.99999795,0.99999996,-2.8072554e-4,0,0)" /><rect
       style="fill:#6600ff;stroke-width:2.80145"
       id="rect7"
       width="18.032244"
       height="145.85712"
       x="76.838379"
       y="55.070385"
       ry="9.453701" /><rect
       style="fill:#6600ff;stroke-width:3.20468"
       id="rect9"
       width="18.032244"
       height="89.440041"
       x="286.5596"
       y="112.97952"
       ry="8.2985601" /><rect
       style="fill:#6600ff;stroke-width:4.0867"
       id="rect10"
       width="144.4782"
       height="19.650312"
       x="159.65736"
       y="112.93747"
       ry="9.8251562" /><rect
       style="fill:#6600ff;stroke-width:3.11318"
       id="rect11"
       width="18.032244"
       height="217.24785"
       x="159.63684"
       y="112.8493"
       ry="10.151769" /><rect
       style="fill:#6600ff;stroke-width:4.3818"
       id="rect12"
       width="143.42421"
       height="19.650312"
       x="159.6635"
       y="310.46149"
       ry="9.8251562" /><rect
       style="fill:#6600ff;stroke-width:4.16704"
       id="rect14"
       width="226.51593"
       height="19.650312"
       x="76.838379"
       y="241.74837"
       ry="0.65501046" /><rect
       style="fill:#6600ff;stroke-width:4.17791"
       id="rect14-9"
       width="227.69987"
       height="19.650312"
       x="76.838379"
       y="182.79739"
       ry="0.65501046" /></g></svg>
